<?xml version="1.0" standalone="no"?>
<!DOCTYPE svg PUBLIC "-//W3C//DTD SVG 20010904//EN"
 "http://www.w3.org/TR/2001/REC-SVG-20010904/DTD/svg10.dtd">
<svg version="1.0" xmlns="http://www.w3.org/2000/svg"
 width="500.000000pt" height="445.000000pt" viewBox="0 0 500.000000 445.000000"
 preserveAspectRatio="xMidYMid meet">

<g transform="translate(0.000000,445.000000) scale(0.100000,-0.100000)"
fill="#FE0034" stroke="none">
<path d="M1174 3896 c-123 -39 -245 -139 -299 -247 -29 -57 -55 -139 -55 -176
l0 -23 183 0 c1501 -1 2541 -443 2626 -1117 18 -142 -26 -330 -112 -482 -53
-93 -183 -232 -282 -300 -263 -182 -665 -297 -1245 -356 -85 -8 -157 -19 -161
-23 -7 -7 -149 -593 -149 -612 0 -7 355 -9 1068 -8 l1069 3 84 42 c109 54 184
130 237 240 l37 78 0 1315 0 1315 -37 78 c-53 110 -128 186 -237 240 l-84 42
-1301 2 c-1032 1 -1309 -1 -1342 -11z"/>
<path d="M1035 2879 c-60 -4 -134 -11 -163 -14 l-52 -6 2 -973 3 -973 42 -84
c54 -109 130 -184 240 -237 77 -36 80 -37 219 -40 111 -3 142 -1 146 10 13 34
570 2300 566 2303 -22 22 -759 32 -1003 14z"/>
<path d="M2225 2836 c-9 -26 -295 -1228 -295 -1238 0 -15 389 -3 540 17 568
77 947 255 1020 479 67 208 -115 414 -499 566 -180 71 -429 136 -674 174 -65
10 -90 10 -92 2z"/>
</g>
</svg>
